<?xml version="1.0" encoding="UTF-8"?>
<svg version="1.1" width="378.31" height="149.31" viewBox="0 0 378.31 149.31" xmlns="http://www.w3.org/2000/svg">
  <path d="m298.19 114.38h4.849v-13.541l11.764 13.541h6.965l-13.776-14.678 12.229-11.679h-6.605l-10.577 10.698v-22.079h-4.849zm-106.04 0h4.643v-3.715h0.104c1.289 1.96 4.282 4.334 8.977 4.334 7.946 0 11.3-7.018 11.3-14.241 0-7.0683-3.715-13.312-11.351-13.312-4.593 0-7.224 1.8057-8.72 4.2312h-0.104v-14.975h-4.849zm19.864-13.26c0.104 4.127-2.064 9.957-7.275 9.957-5.469 0-7.74-5.417-7.74-9.803 0-4.9011 2.528-9.9063 7.792-9.9063 5.263 0 7.327 5.0052 7.223 9.7523m-116.7 13.23h4.85v-26.314h-4.85zm0-32.968h4.85v-4.8499h-4.85zm13.718 32.998h4.85v-12.177c0-6.3978 2.477-10.835 7.997-10.835 4.232 0.2579 5.573 3.2505 5.573 9.3903v13.622h4.85v-15.634c0-7.0685-3.044-11.3-9.855-11.3-3.663 0-7.171 1.8057-8.616 4.7984h-0.103v-4.1791h-4.696zm31.525 0h4.849v-12.177c0-6.3978 2.478-10.835 7.999-10.835 4.23 0.2579 5.572 3.2505 5.572 9.3903v13.622h4.85v-15.634c0-7.0685-3.045-11.3-9.856-11.3-3.662 0-7.171 1.8057-8.615 4.7984h-0.104v-4.1791h-4.695zm29.306-0.826c2.219 1.187 4.747 1.445 7.224 1.445 4.694 0 9.184-2.58 9.184-8.204 0-8.4103-11.403-6.8623-11.403-12.228 0-2.1666 2.167-3.199 4.643-3.199 1.136 0 4.025 0.6709 5.108 1.3417l0.413-4.2305c-1.909-0.5678-3.767-1.0324-6.037-1.0324-5.211 0-9.287 2.6318-9.287 8.1003 0 7.3782 11.403 6.9652 11.403 11.764 0 2.838-2.735 3.766-4.953 3.766-1.394 0-4.128-0.619-6.038-1.857zm53.813 0.826h4.851v-11.971c0-6.6038 2.837-10.731 7.172-10.731 0.825 0 1.805 0.1031 2.682 0.464v-4.3338c-1.032-0.2068-1.754-0.3614-3.198-0.3614-2.787 0-5.573 1.9609-6.863 4.6952h-0.102v-4.0759h-4.542zm43.341-26.314h-4.851v12.176c0 6.398-2.476 10.835-7.997 10.835-4.231-0.258-5.572-3.25-5.572-9.39v-13.621h-4.85v15.633c0 7.069 3.043 11.3 9.855 11.3 3.663 0 7.172-1.806 8.616-4.799h0.103v4.18h4.696zm25.384 0.4131c-1.393-0.5678-3.921-1.0324-5.882-1.0324-8.048 0-13.414 5.7785-13.414 13.776 0 7.532 5.469 13.776 13.414 13.776 1.754 0 4.077-0.155 6.089-1.084l-0.361-4.334c-1.496 0.981-3.56 1.496-5.212 1.496-6.243 0-8.771-5.159-8.771-9.854 0-5.0054 3.044-9.8553 8.461-9.8553 1.548 0 3.406 0.3615 5.263 1.1355zm2.719-42.165h-6.965v-8.996l-4.849 1.5473v7.4487h-5.935v3.9218h5.935v15.375c0 5.263 3.096 7.6362 8.099 7.6362 1.548 0 3.044-0.4129 4.128-0.7223v-4.1275c-0.722 0.4641-1.805 0.9286-3.302 0.9286-2.219 0-4.076-1.651-4.076-4.6952v-14.395h6.965zm48.739 0h-6.965v-8.996l-4.851 1.5473v7.4487h-5.933v3.9218h5.933v15.375c0 5.263 3.096 7.6362 8.101 7.6362 1.547 0 3.044-0.4129 4.127-0.7223v-4.1275c-0.722 0.4641-1.806 0.9286-3.302 0.9286-2.218 0-4.075-1.651-4.075-4.6952v-14.395h6.965zm-76.473-6.5591h4.849v-4.8504h-4.849zm-108.96 0h4.849v-4.8504h-4.849zm146.32 2.425h4.85v-4.8504h-4.85zm8.416 0h4.849v-4.8504h-4.849zm-195.14 4.2341h-4.85v12.177c0 6.3977-2.477 10.835-7.998 10.835-4.23-0.2577-5.572-3.2505-5.572-9.3904v-13.622h-4.8498v15.634c0 7.0686 3.0438 11.3 9.8548 11.3 3.663 0 7.171-1.8057 8.616-4.7982h0.104v4.179h4.695zm8.254 26.314h4.851v-12.176c0-6.3984 2.476-10.835 7.997-10.835 4.23 0.2579 5.572 3.2505 5.572 9.3905v13.621h4.85v-15.633c0-7.0687-3.044-11.299-9.854-11.299-3.664 0-7.172 1.8057-8.617 4.7983h-0.103v-4.1797h-4.696zm32.145 0h4.849v-26.314h-4.849zm34.827-26.314h-4.851l-7.274 21.464h-0.104l-7.12-21.464h-5.315l9.443 26.314h5.778zm24.869 20.381c-1.187 0.9801-4.902 2.6311-8.1 2.6311-4.593 0-8.669-3.5603-8.669-8.7711h18.78c0-8.4618-2.837-14.86-11.609-14.86-7.429 0-12.33 5.5206-12.33 13.312 0 8.5643 4.283 14.24 13.621 14.24 4.333 0 6.449-1.0322 8.307-1.7025zm-16.769-9.7519c0.361-3.4051 2.322-7.3264 7.069-7.3264 4.178 0 6.553 3.3021 6.553 7.3264zm25.282 15.685h4.85v-11.97c0-6.6045 2.837-10.732 7.172-10.732 0.825 0 1.805 0.1032 2.683 0.4647v-4.3343c-1.032-0.2062-1.755-0.3609-3.199-0.3609-2.787 0-5.572 1.9603-6.862 4.6952h-0.103v-4.0766h-4.541zm17.851-0.8255c2.219 1.187 4.748 1.4447 7.224 1.4447 4.696 0 9.184-2.5795 9.184-8.2039 0-8.4102-11.403-6.8618-11.403-12.228 0-2.1672 2.167-3.1989 4.644-3.1989 1.135 0 4.024 0.6703 5.108 1.3412l0.414-4.2307c-1.91-0.5677-3.767-1.0317-6.038-1.0317-5.212 0-9.287 2.6311-9.287 8.1003 0 7.378 11.403 6.9654 11.403 11.764 0 2.838-2.734 3.7666-4.953 3.7666-1.393 0-4.128-0.6192-6.037-1.8577zm22.909 0.8255h4.851v-26.314h-4.851zm35.291-20.329c1.96-1.6511 4.901-2.6828 7.636-2.6828 4.85 0 6.501 2.3213 6.501 6.8619-1.909-0.1032-3.251-0.1032-5.16-0.1032-5.004 0-12.227 2.064-12.227 8.668 0 5.7275 3.973 8.2039 9.647 8.2039 4.437 0 7.017-2.4248 8.153-4.0243h0.103v3.4051h4.541c-0.104-0.7739-0.206-2.1671-0.206-5.1597v-10.887c0-7.1717-3.044-10.886-10.577-10.886-3.355 0-6.244 1.0317-8.67 2.4765zm14.137 10.113c0 3.9212-2.528 6.9138-7.326 6.9138-2.219 0-4.902-1.4962-4.902-4.2827 0-4.6436 6.502-5.0561 9.132-5.0561 1.032 0 2.064 0.1032 3.096 0.1032z" fill="#0c2f59"/>
  <rect x="33.8" y="33.226" width="40" height="40" fill="#003361" stroke="white" stroke-width=".8"/>
  <rect x="33.8" y="76.128" width="40" height="40" fill="#F29100" stroke="white" stroke-width=".8"/>
</svg>
